D:\school\WTK\thesis\model\3dpredictsim\Results\Batchsim_tmt_linear_v2\Pog_s1_tmt_bCst_d02_k1000_ig24_pas_GRF.mot
nRows=17
nColumns=19

name D:\school\WTK\thesis\model\3dpredictsim\Results\Batchsim_tmt_linear_v2\Pog_s1_tmt_bCst_d02_k1000_ig24_pas_GRF.mot
datacolumns 19
datarows 17
range 0.0000000000 0.1729862709
endheader
time 	ground_force_vx	ground_force_vy	ground_force_vz	ground_force_px	ground_force_py	ground_force_pz	1_ground_force_vx	1_ground_force_vy	1_ground_force_vz	1_ground_force_px	1_ground_force_py	1_ground_force_pz	ground_torque_x	ground_torque_y	ground_torque_z	1_ground_torque_x	1_ground_torque_y	1_ground_torque_z
        0.0000000000	      -80.6506301586	       61.5533357035	       17.1490295437	        0.1585297822	        0.0000000000	        0.0456687997	      109.9343291261	      461.9301795544	        2.5394790812	       -0.3513265883	        0.0000000000	       -0.0470240013	        0.0000000000	        0.0000000000	        0.0000000000	        0.0000000000	        0.0000000000	        0.0000000000	
        0.0108116419	     -141.6080460618	      142.2906952472	       44.0407733002	        0.1667256554	        0.0000000000	        0.0441419407	       76.0613883215	      361.3967762461	       -3.6000962957	       -0.3366605998	        0.0000000000	       -0.0446744223	        0.0000000000	        0.0000000000	        0.0000000000	        0.0000000000	        0.0000000000	        0.0000000000	
        0.0216232839	      -62.8095777095	      296.6598743562	       18.2266458857	        0.1734328266	        0.0000000000	        0.0427357062	       39.1246535825	      256.8121213831	       -7.1014396066	       -0.3130995901	        0.0000000000	       -0.0403601209	        0.0000000000	        0.0000000000	        0.0000000000	        0.0000000000	        0.0000000000	        0.0000000000	
        0.0324349258	      -61.4129064869	      486.4217309049	       -0.5324181728	        0.1785454241	        0.0000000000	        0.0434054003	       11.8291220891	      173.5749069143	       -8.2716916163	       -0.2819983685	        0.0000000000	       -0.0330057267	        0.0000000000	        0.0000000000	        0.0000000000	        0.0000000000	        0.0000000000	        0.0000000000	
        0.0432465677	     -102.5965192183	      730.3816352905	      -11.8054383344	        0.1885066120	        0.0000000000	        0.0463289728	       -0.2766050174	      139.9707086946	      -11.1665654126	       -0.2726458679	        0.0000000000	       -0.0300188169	        0.0000000000	        0.0000000000	        0.0000000000	        0.0000000000	        0.0000000000	        0.0000000000	
        0.0540582097	     -129.4247990884	      893.7853343543	      -17.9383226206	        0.1955000357	        0.0000000000	        0.0482955081	       -0.9938111116	      106.5536343061	      -12.2985426691	       -0.2721052574	        0.0000000000	       -0.0301995085	        0.0000000000	        0.0000000000	        0.0000000000	        0.0000000000	        0.0000000000	        0.0000000000	
        0.0648698516	     -133.0627560814	      939.3803569749	      -19.5059768648	        0.2003012200	        0.0000000000	        0.0495208642	       -4.0297230562	       68.7980079408	      -11.8000441228	       -0.2716446774	        0.0000000000	       -0.0303509494	        0.0000000000	        0.0000000000	        0.0000000000	        0.0000000000	        0.0000000000	        0.0000000000	
        0.0756814935	     -124.0146806129	      910.9042662994	      -19.0868389457	        0.2040891051	        0.0000000000	        0.0503645978	       -8.6207682989	       28.5173244149	       -6.2823081202	       -0.2720104135	        0.0000000000	       -0.0301637353	        0.0000000000	        0.0000000000	        0.0000000000	        0.0000000000	        0.0000000000	        0.0000000000	
        0.0864931354	     -110.2327862990	      863.1510474206	      -17.8078655688	        0.2077774519	        0.0000000000	        0.0509977931	        0.1618121275	       -0.1620467816	        0.0125409467	        0.0000000000	        0.0000000000	        0.0000000000	        0.0000000000	        0.0000000000	        0.0000000000	        0.0000000000	        0.0000000000	        0.0000000000	
        0.0973047774	      -97.6090596166	      821.9206844950	      -17.5162789276	        0.2121743897	        0.0000000000	        0.0517207009	        0.0004375472	       -0.0003605089	       -0.0000050516	        0.0000000000	        0.0000000000	        0.0000000000	        0.0000000000	        0.0000000000	        0.0000000000	        0.0000000000	        0.0000000000	        0.0000000000	
        0.1081164193	      -90.1907218717	      794.4309405701	      -17.8289849006	        0.2180814023	        0.0000000000	        0.0521233282	        0.0001843704	       -0.0001322712	       -0.0000056698	        0.0000000000	        0.0000000000	        0.0000000000	        0.0000000000	        0.0000000000	        0.0000000000	        0.0000000000	        0.0000000000	        0.0000000000	
        0.1189280612	      -81.6537465549	      760.5499874890	      -17.4700799996	        0.2241496434	        0.0000000000	        0.0522471200	        0.0013581715	       -0.0008732975	       -0.0000528767	        0.0000000000	        0.0000000000	        0.0000000000	        0.0000000000	        0.0000000000	        0.0000000000	        0.0000000000	        0.0000000000	        0.0000000000	
        0.1297397032	      -73.3338654247	      722.5827789949	      -17.0598352638	        0.2300469319	        0.0000000000	        0.0522703066	        0.0082151016	       -0.0048404720	       -0.0003536682	        0.0000000000	        0.0000000000	        0.0000000000	        0.0000000000	        0.0000000000	        0.0000000000	        0.0000000000	        0.0000000000	        0.0000000000	
        0.1405513451	      -65.4071456639	      689.1440193948	      -16.7587909219	        0.2358654269	        0.0000000000	        0.0521923218	       -0.0572434518	        0.0314177560	        0.0026049872	        0.0000000000	        0.0000000000	        0.0000000000	        0.0000000000	        0.0000000000	        0.0000000000	        0.0000000000	        0.0000000000	        0.0000000000	
        0.1513629870	      -57.8948983289	      662.4209103823	      -16.8382967087	        0.2414677698	        0.0000000000	        0.0521085123	       -0.0404077203	        0.0208819901	        0.0019141758	        0.0000000000	        0.0000000000	        0.0000000000	        0.0000000000	        0.0000000000	        0.0000000000	        0.0000000000	        0.0000000000	        0.0000000000	
        0.1621746290	      -51.0394629050	      641.7366880629	      -17.2253747922	        0.2467692501	        0.0000000000	        0.0520132157	       -0.0281400490	        0.0138080292	        0.0013719405	        0.0000000000	        0.0000000000	        0.0000000000	        0.0000000000	        0.0000000000	        0.0000000000	        0.0000000000	        0.0000000000	        0.0000000000	
        0.1729862709	      -44.6859584937	      626.0348275113	      -17.5271764812	        0.2517790254	        0.0000000000	        0.0519016584	       -0.0242782941	        0.0113828290	        0.0012088310	        0.0000000000	        0.0000000000	        0.0000000000	        0.0000000000	        0.0000000000	        0.0000000000	        0.0000000000	        0.0000000000	        0.0000000000	
